<?xml version="1.0" encoding="UTF-8"?>
<svg id="Warstwa_1" xmlns="http://www.w3.org/2000/svg" version="1.1" viewBox="0 0 1000 1000">
  <!-- Generator: Adobe Illustrator 29.1.0, SVG Export Plug-In . SVG Version: 2.1.0 Build 142)  -->
  <defs>
    <style>
      .st0 {
        fill: #fff;
      }
    </style>
  </defs>
  <path class="st0" d="M806.3,422.5c-1.4-3.7-4.4-8.7-16.5-16.9-5.5-3.7-14.8-9.4-27.9-15.4-19.7-9-50.6-20-85.5-20.6-22.5-.4-48.8,3.6-74.2,17.7,4.1-28.3-1.1-54.1-9.1-75-12.4-32.5-32.8-57.7-47.7-73.1-10-10.4-18.3-17.1-23.6-21-11.7-8.7-17.2-9.9-21.4-9.9s-9.7,1.2-21.5,9.7c-5.4,3.9-13.9,10.7-24,21-15.3,15.5-36.1,40.7-48.6,73.3-8,20.8-13.2,46.5-8.9,74.9-25.4-13.8-51.6-17.8-74.2-17.4-34.7.5-65.4,11-85,19.8-13.1,5.9-22.4,11.4-27.8,15-12.1,8-15.2,12.8-16.6,16.8-1.4,3.8-2.2,9.5,1.8,23.5,1.8,6.3,5.3,16.7,11.5,29.8,9.3,19.6,25.9,47.8,52.3,70.7,18.6,16.2,44.1,31.3,76.6,35.5-21.7,19.1-34.4,42.5-41.8,63.8-11.4,32.8-12,65.2-10.5,86.7,1,14.3,3,24.9,4.5,31.2,3.4,14.2,6.8,18.6,10.1,21.3,3,2.6,8.1,5.3,22.7,6.4,3,.2,6.9.4,11.6.4h0c5.6,0,12.4-.2,20.2-1,21.6-2,53.8-8,84.3-25,23.1-12.8,47.8-33.5,62.8-66.4,15.1,33,40,53.8,63.3,66.8,30.3,16.9,62.2,23.1,83.5,25.4,8.8.9,16.2,1.2,22.2,1.2h0c3.7,0,6.9-.1,9.4-.3,14.5-.9,19.5-3.5,22.8-6.2,3-2.6,6.7-7.1,10.2-21.3,1.6-6.4,3.8-17.1,4.9-31.5,1.8-21.6,1.5-54.4-9.9-87.4-7.4-21.4-20.2-44.9-42.5-64.1,32.3-4.5,57.7-19.6,76.3-35.8,26.3-22.7,43-50.5,52.4-69.8,6.3-12.9,9.8-23.1,11.7-29.3,4.1-14,3.4-19.5,1.9-23.5ZM427.6,346.5c5.8-32,24-58.6,38.3-75.3,13.9-16.2,27.6-27.1,34.3-31.4,6.7,4.4,20.2,15.5,33.9,32,14.1,16.9,32.1,43.9,37.6,76,4.8,28-.7,55-16.5,80.8-2.9,4.8-6.2,9.5-9.8,14.2-1.6,2.5-3.2,5.1-4.7,7.8l-.6-1.3-19.4-39.4c-5-10.1-15-16.3-26.3-16.3s-21.3,6.3-26.3,16.3l-15.1,30.5c.7,1,1.3,2,2,3.1-.7-.9-1.4-1.8-2.1-2.7-3.3-4.4-6.4-8.9-9.1-13.4-15.8-25.9-21.2-53-16.2-80.8ZM532.3,550.1l5.7,33.4-30-15.8c-4.3-2.2-9-3.4-13.6-3.4h0c-4.7,0-9.4,1.1-13.6,3.4l-30,15.8,5.7-33.4c1.6-9.5-1.5-19.2-8.4-25.9l-24.3-23.7,33.5-4.9c9.5-1.4,17.8-7.4,22.1-16l15-30.4,15,30.4c4.3,8.7,12.5,14.6,22.1,16l33.5,4.9-24.3,23.7c-6.9,6.7-10.1,16.4-8.4,25.9ZM298.7,536.9c-28.1-16.4-46.9-42.6-57.7-61.8-10.5-18.6-16.1-35.2-17.8-43,6.4-4.8,21.4-13.7,41.7-21,20.7-7.5,52.2-15.2,84.3-9.4,27.9,5,51.3,19.4,70,42.9,0,0,0,0,0,0,3.4,4.2,6.6,8.8,9.7,13.6.5.7.9,1.5,1.4,2.2-.6-.7-1.1-1.5-1.7-2.2l-34.2,5c-11.1,1.6-20.2,9.3-23.7,19.9-3.5,10.7-.6,22.2,7.4,30l28.9,28.2c-40.4,15.4-76.8,13.8-108.4-4.6ZM442.8,724.8c-25,20.8-56.1,29.5-77.8,33.1-21.1,3.5-38.6,3.1-46.5,2-2.3-7.6-5.5-24.8-5.5-46.3,0-22,3.6-54.2,20-82.4,16.3-28.1,42.2-46.5,77.3-54.9l-4.1,23.6c-1.9,11.1,2.6,22.1,11.7,28.7,5.1,3.7,11.1,5.6,17.2,5.6h0c4.7,0,9.3-1.1,13.7-3.4l34.9-18.3c3.5,49-10.2,86.7-40.9,112.3ZM668,632.6c16.1,28.2,19.3,60.4,19.1,82.4-.2,21.4-3.7,38.5-6.1,46.1-7.9.9-25.4,1.1-46.5-2.7-21.7-3.9-52.8-13-77.7-34-29.3-24.8-43-60.4-40.7-106l23.8,12.5c9.9,5.2,21.8,4.4,30.9-2.2,9.1-6.6,13.6-17.6,11.7-28.7l-4.3-25.3c41.8,7.1,72,26.5,90,58ZM758.3,476c-11.1,19-30.2,45.2-58.6,61.4-33.7,19.3-72.4,19.8-115.2,1.3l26-25.3c8-7.8,10.9-19.4,7.4-30-3.5-10.7-12.5-18.3-23.7-19.9l-24.2-3.5c3.1-5,6.4-9.7,9.9-14.1,0,0,0,0,0,0,19.2-24.5,43.1-39.4,71.6-44.3,32.1-5.5,63.3,2.5,83.9,10.3,20,7.5,35,16.6,41.3,21.5-1.8,7.8-7.6,24.3-18.4,42.8Z"/>
</svg>